# xmcd
#
# Track frame offsets:
#	183
#	14695
#	29433
#	43883
#	61458
#	72758
#	89170
#	101045
#	118258
#	135258
#	153458
#	171983
#	188883
#	202845
#	219833
#	238895
#	257245
#	271020
#
# Disc length: 3800
#
# Revision: 1
# Processed by: cddbd v1.5.1PL0 Copyright (c) Steve Scherf et al.
# Submitted via: CDex 1.40Beta9
# Normalized: r0:TDELIM( - )
#
DISCID=0c0ed612
DTITLE=Various Artist - Rockin' The Country - Vol 2
DYEAR=1991
DGENRE=Country
TTITLE0=Alabama - Song of the South
TTITLE1=The Judds - Mama he's crazy
TTITLE2=Matraca Berg - Baby, walk on
TTITLE3=Restless Heart - Long lost Friend
TTITLE4=Clint Black - Muddy Water
TTITLE5=Jo-El Sonnier - Have a little Faith in me
TTITLE6=Foster and Lloyd - Is it love
TTITLE7=K.T. Oslin - Come next Monday
TTITLE8=Lorrie Morgan - Dear me
TTITLE9=Baillie an the Boys - I can't turn the Tide
TTITLE10=Vince Gill - Pocket full of Gold
TTITLE11=George Strait - I've come to expect it from you
TTITLE12=Mark Chesnutt - Brother Jukebox
TTITLE13=Reba McEntire - Rumor has it
TTITLE14=Keith Whitley - Don't close your Eyes
TTITLE15=Paul Overstreet - All the fun
TTITLE16=Patty Loveless - I'm that kind of Girl
TTITLE17=Alan Jackson - Ace of Hearts
EXTD=YEAR: 1991 ID3G: 2
EXTT0=
EXTT1=
EXTT2=
EXTT3=
EXTT4=
EXTT5=
EXTT6=
EXTT7=
EXTT8=
EXTT9=
EXTT10=
EXTT11=
EXTT12=
EXTT13=
EXTT14=
EXTT15=
EXTT16=
EXTT17=
PLAYORDER=
